<svg width="14" height="15" viewBox="0 0 14 15" fill="none" xmlns="http://www.w3.org/2000/svg">
<path d="M13.6109 0.700073H5.05533C4.84037 0.700073 4.66643 0.874016 4.66643 1.08897C4.66643 1.30393 4.84037 1.47788 5.05533 1.47788H12.6721L0.113697 14.0363C-0.0382245 14.1882 -0.0382245 14.4343 0.113697 14.5862C0.18964 14.6621 0.289171 14.7001 0.388666 14.7001C0.488161 14.7001 0.587656 14.6621 0.663635 14.5862L13.222 2.02777V9.64454C13.222 9.8595 13.3959 10.0334 13.6109 10.0334C13.8259 10.0334 13.9998 9.8595 13.9998 9.64454V1.08897C13.9998 0.874016 13.8258 0.700073 13.6109 0.700073Z" fill="#050B20"/>
</svg>
