<svg width="25" height="24" viewBox="0 0 25 24" fill="none" xmlns="http://www.w3.org/2000/svg">
<g clip-path="url(#clip0_953_3642)">
<path fill-rule="evenodd" clip-rule="evenodd" d="M20.75 3.75H13.25V2.25C13.25 1.83579 12.9142 1.5 12.5 1.5C12.0858 1.5 11.75 1.83579 11.75 2.25V3.75H4.25C3.42157 3.75 2.75 4.42157 2.75 5.25V16.5C2.75 17.3284 3.42157 18 4.25 18H7.94L5.91406 20.5312C5.65518 20.8549 5.70765 21.3271 6.03125 21.5859C6.35485 21.8448 6.82705 21.7924 7.08594 21.4688L9.86 18H15.14L17.9141 21.4688C18.1729 21.7924 18.6451 21.8448 18.9688 21.5859C19.2924 21.3271 19.3448 20.8549 19.0859 20.5312L17.06 18H20.75C21.5784 18 22.25 17.3284 22.25 16.5V5.25C22.25 4.42157 21.5784 3.75 20.75 3.75ZM20.75 16.5H4.25V5.25H20.75V16.5ZM10.25 11.25V13.5C10.25 13.9142 9.91421 14.25 9.5 14.25C9.08579 14.25 8.75 13.9142 8.75 13.5V11.25C8.75 10.8358 9.08579 10.5 9.5 10.5C9.91421 10.5 10.25 10.8358 10.25 11.25ZM13.25 9.75V13.5C13.25 13.9142 12.9142 14.25 12.5 14.25C12.0858 14.25 11.75 13.9142 11.75 13.5V9.75C11.75 9.33579 12.0858 9 12.5 9C12.9142 9 13.25 9.33579 13.25 9.75ZM16.25 8.25V13.5C16.25 13.9142 15.9142 14.25 15.5 14.25C15.0858 14.25 14.75 13.9142 14.75 13.5V8.25C14.75 7.83579 15.0858 7.5 15.5 7.5C15.9142 7.5 16.25 7.83579 16.25 8.25Z" fill="white"/>
<path fill-rule="evenodd" clip-rule="evenodd" d="M20.75 3.75H13.25V2.25C13.25 1.83579 12.9142 1.5 12.5 1.5C12.0858 1.5 11.75 1.83579 11.75 2.25V3.75H4.25C3.42157 3.75 2.75 4.42157 2.75 5.25V16.5C2.75 17.3284 3.42157 18 4.25 18H7.94L5.91406 20.5312C5.65518 20.8549 5.70765 21.3271 6.03125 21.5859C6.35485 21.8448 6.82705 21.7924 7.08594 21.4688L9.86 18H15.14L17.9141 21.4688C18.1729 21.7924 18.6451 21.8448 18.9688 21.5859C19.2924 21.3271 19.3448 20.8549 19.0859 20.5312L17.06 18H20.75C21.5784 18 22.25 17.3284 22.25 16.5V5.25C22.25 4.42157 21.5784 3.75 20.75 3.75ZM20.75 16.5H4.25V5.25H20.75V16.5ZM10.25 11.25V13.5C10.25 13.9142 9.91421 14.25 9.5 14.25C9.08579 14.25 8.75 13.9142 8.75 13.5V11.25C8.75 10.8358 9.08579 10.5 9.5 10.5C9.91421 10.5 10.25 10.8358 10.25 11.25ZM13.25 9.75V13.5C13.25 13.9142 12.9142 14.25 12.5 14.25C12.0858 14.25 11.75 13.9142 11.75 13.5V9.75C11.75 9.33579 12.0858 9 12.5 9C12.9142 9 13.25 9.33579 13.25 9.75ZM16.25 8.25V13.5C16.25 13.9142 15.9142 14.25 15.5 14.25C15.0858 14.25 14.75 13.9142 14.75 13.5V8.25C14.75 7.83579 15.0858 7.5 15.5 7.5C15.9142 7.5 16.25 7.83579 16.25 8.25Z" fill="black"/>
</g>
<defs>
<clipPath id="clip0_953_3642">
<rect width="24" height="24" fill="white" transform="translate(0.5)"/>
</clipPath>
</defs>
</svg>
