<svg width="16" height="16" viewBox="0 0 16 16" fill="none" xmlns="http://www.w3.org/2000/svg">
<path d="M7.41113 0.587541C7.78909 0.626178 8.08398 0.94548 8.08398 1.33363C8.08382 1.72165 7.78899 2.04112 7.41113 2.07973L7.33398 2.08363H6.00098C4.40828 2.08363 3.4878 2.40639 2.94727 2.94692C2.40683 3.48747 2.08398 4.4081 2.08398 6.00063V10.0006C2.08407 11.5928 2.40691 12.5129 2.94727 13.0534C3.48782 13.5938 4.40845 13.9166 6.00098 13.9166H10.001C11.5933 13.9166 12.5132 13.5938 13.0537 13.0534C13.5942 12.5129 13.9169 11.5929 13.917 10.0006V8.66664C13.9172 8.25269 14.253 7.91682 14.667 7.91664C15.0811 7.91664 15.4168 8.25258 15.417 8.66664V10.0006C15.4169 11.741 15.0736 13.1546 14.1143 14.1139C13.1549 15.0732 11.7414 15.4166 10.001 15.4166H6.00098C4.26044 15.4166 2.84618 15.0732 1.88672 14.1139C0.927495 13.1546 0.584071 11.7409 0.583984 10.0006V6.00063C0.583984 4.26009 0.927377 2.84584 1.88672 1.88637C2.84619 0.926901 4.26034 0.583635 6.00098 0.583635H7.33398L7.41113 0.587541ZM12.1074 0.426408C12.949 0.343892 13.7546 0.720058 14.5176 1.48305C15.2806 2.24608 15.6568 3.0516 15.5742 3.89321C15.4954 4.6954 15.0138 5.34035 14.5176 5.83656L9.26465 11.0905L9.25586 11.0993L9.25488 11.0983C9.08146 11.266 8.86248 11.4077 8.6582 11.5104C8.45559 11.6122 8.20676 11.7065 7.95996 11.7418L5.9541 12.0289L5.9502 12.0299C5.38986 12.107 4.83467 11.9547 4.43945 11.5612C4.04356 11.1669 3.89071 10.6117 3.97266 10.0475H3.97168L4.25879 8.04262C4.29372 7.79285 4.38817 7.54258 4.49121 7.33754C4.59442 7.13224 4.73659 6.90958 4.91016 6.73598L10.1641 1.48305C10.6603 0.986892 11.3053 0.505208 12.1074 0.426408ZM5.97168 7.79653C5.94541 7.8228 5.88772 7.89778 5.83105 8.01039C5.77456 8.1228 5.74949 8.21252 5.74414 8.24965L5.74316 8.25258L5.45703 10.2594L5.45605 10.2623C5.43246 10.4235 5.48302 10.4837 5.49805 10.4987C5.51495 10.5153 5.57919 10.5649 5.74121 10.5436L7.74805 10.2575C7.78119 10.2527 7.87009 10.2275 7.98535 10.1696C8.09889 10.1124 8.17981 10.0531 8.21289 10.0211L11.9082 6.32387C10.9612 5.81271 10.1856 5.03673 9.67578 4.09145L5.97168 7.79653ZM12.2539 1.91957C11.9697 1.94756 11.6348 2.13345 11.2246 2.5436L10.8008 2.96645C11.2064 3.98162 12.0127 4.78807 13.0342 5.19789L13.457 4.77602C13.8672 4.36579 14.0531 4.03096 14.0811 3.74672C14.105 3.50173 14.0271 3.11367 13.457 2.5436C12.887 1.9736 12.4989 1.89561 12.2539 1.91957Z" fill="#F8FAFC"/>
</svg>
