<svg width="16" height="16" viewBox="0 0 16 16" fill="none" xmlns="http://www.w3.org/2000/svg">
<path fill-rule="evenodd" clip-rule="evenodd" d="M13.0357 6.26558C12.8235 6.26558 10.3645 6.01574 10.2145 5.86569C10.0645 5.71563 9.9802 5.51221 9.9802 5.3C9.9802 5.08779 10.0645 4.88437 10.2145 4.73431C10.3645 4.58426 10.568 4.5 10.7802 4.5H14.7802C14.9924 4.5 15.1959 4.58426 15.3459 4.73431C15.4959 4.88437 15.5802 5.08779 15.5802 5.3V9.3C15.5802 9.51221 15.4959 9.71563 15.3459 9.86569C15.1959 10.0157 14.9924 10.1 14.7802 10.1C14.568 10.1 14.3645 10.0157 14.2145 9.86569C14.0645 9.71563 13.9802 9.51221 13.9802 9.3V7.2312L10.5458 10.6656C10.3958 10.8156 10.1923 10.8998 9.9802 10.8998C9.76807 10.8998 9.56462 10.8156 9.4146 10.6656L8.0802 9.3L4.1458 13.0656C3.99492 13.2114 3.79284 13.292 3.58308 13.2901C3.37332 13.2883 3.17267 13.2042 3.02435 13.0559C2.87602 12.9075 2.79188 12.7069 2.79006 12.4971C2.78824 12.2873 2.86887 12.0853 3.0146 11.9344L7.0802 8C7.5802 7.5 7.5802 7.5 8.0802 7L10.2145 9L13.0357 6.26558Z" fill="#16A34A"/>
</svg>
