<svg width="14" height="14" viewBox="0 0 14 14" fill="none" xmlns="http://www.w3.org/2000/svg">
<path d="M9.91763 9.91372C9.77919 9.77604 9.70998 9.612 9.70998 9.42161C9.70998 9.23122 9.77919 9.06927 9.91763 8.93576L11.1635 7.69664H5.86227C5.6667 7.69664 5.50189 7.62969 5.36784 7.4958C5.2338 7.36189 5.16677 7.19725 5.16677 7.00189C5.16677 6.80651 5.2338 6.64289 5.36784 6.51103C5.50189 6.37917 5.6667 6.31324 5.86227 6.31324H11.1284L9.85503 5.04679C9.7283 4.92645 9.66659 4.77265 9.66989 4.5854C9.6732 4.39816 9.74533 4.23539 9.88627 4.09709C10.0182 3.95879 10.1832 3.89129 10.3811 3.89459C10.5791 3.89787 10.7472 3.96835 10.8857 4.10603L13.3302 6.53723C13.4014 6.6097 13.4538 6.68742 13.4874 6.77039C13.521 6.85338 13.5379 6.93852 13.5379 7.02583C13.5379 7.11314 13.521 7.19726 13.4874 7.27817C13.4538 7.35909 13.4014 7.43556 13.3302 7.50759L10.8933 9.93118C10.7666 10.0572 10.6086 10.1202 10.4192 10.1202C10.2299 10.1202 10.0627 10.0514 9.91763 9.91372ZM1.86187 13.5385C1.47861 13.5385 1.14931 13.4025 0.873961 13.1306C0.598612 12.8587 0.460938 12.5335 0.460938 12.1551V1.85482C0.460938 1.47365 0.598612 1.14615 0.873961 0.8723C1.14931 0.598465 1.47861 0.461548 1.86187 0.461548H6.34551C6.54108 0.461548 6.70589 0.530428 6.83994 0.66819C6.97398 0.805963 7.04101 0.972248 7.04101 1.16704C7.04101 1.36184 6.97398 1.52517 6.83994 1.65703C6.70589 1.78889 6.54108 1.85482 6.34551 1.85482H1.86187V12.1551H6.34551C6.54108 12.1551 6.70589 12.222 6.83994 12.3559C6.97398 12.4898 7.04101 12.6545 7.04101 12.8498C7.04101 13.0452 6.97398 13.2088 6.83994 13.3407C6.70589 13.4725 6.54108 13.5385 6.34551 13.5385H1.86187Z" fill="#F8FAFC"/>
</svg>
