<svg width="17" height="21" viewBox="0 0 17 21" fill="none" xmlns="http://www.w3.org/2000/svg">
<path fill-rule="evenodd" clip-rule="evenodd" d="M15.25 2H11.8506C10.9983 1.04571 9.7795 0.500136 8.5 0.500136C7.2205 0.500136 6.0017 1.04571 5.14937 2H1.75C0.921573 2 0.25 2.67157 0.25 3.5V19.25C0.25 20.0784 0.921573 20.75 1.75 20.75H15.25C16.0784 20.75 16.75 20.0784 16.75 19.25V3.5C16.75 2.67157 16.0784 2 15.25 2ZM8.5 2C10.1569 2 11.5 3.34315 11.5 5H5.5C5.5 3.34315 6.84315 2 8.5 2ZM15.25 19.25H1.75V3.5H4.25781C4.08721 3.9817 4.00002 4.48898 4 5V5.75C4 6.16421 4.33579 6.5 4.75 6.5H12.25C12.6642 6.5 13 6.16421 13 5.75V5C13 4.48898 12.9128 3.9817 12.7422 3.5H15.25V19.25Z" fill="#121217"/>
</svg>
