<svg width="15" height="22" viewBox="0 0 15 22" fill="none" xmlns="http://www.w3.org/2000/svg">
<path fill-rule="evenodd" clip-rule="evenodd" d="M9.75 10.25H8.25V4.25H9C10.6569 4.25 12 5.59315 12 7.25C12 7.66421 12.3358 8 12.75 8C13.1642 8 13.5 7.66421 13.5 7.25C13.4974 4.76579 11.4842 2.75258 9 2.75H8.25V1.25C8.25 0.835786 7.91421 0.5 7.5 0.5C7.08579 0.5 6.75 0.835786 6.75 1.25V2.75H6C3.51472 2.75 1.5 4.76472 1.5 7.25C1.5 9.73528 3.51472 11.75 6 11.75H6.75V17.75H5.25C3.59315 17.75 2.25 16.4069 2.25 14.75C2.25 14.3358 1.91421 14 1.5 14C1.08579 14 0.75 14.3358 0.75 14.75C0.752584 17.2342 2.76579 19.2474 5.25 19.25H6.75V20.75C6.75 21.1642 7.08579 21.5 7.5 21.5C7.91421 21.5 8.25 21.1642 8.25 20.75V19.25H9.75C12.2353 19.25 14.25 17.2353 14.25 14.75C14.25 12.2647 12.2353 10.25 9.75 10.25ZM6 10.25C4.34315 10.25 3 8.90685 3 7.25C3 5.59315 4.34315 4.25 6 4.25H6.75V10.25H6ZM9.75 17.75H8.25V11.75H9.75C11.4069 11.75 12.75 13.0931 12.75 14.75C12.75 16.4069 11.4069 17.75 9.75 17.75Z" fill="#121217"/>
</svg>
