<svg width="17" height="24" viewBox="0 0 17 24" fill="none" xmlns="http://www.w3.org/2000/svg">
<path fill-rule="evenodd" clip-rule="evenodd" d="M16.7303 11.0784C16.6726 10.8343 16.4967 10.6352 16.2616 10.5478L10.8606 8.52188L12.235 1.64719C12.2989 1.31904 12.138 0.988192 11.8403 0.835989C11.5426 0.683786 11.1802 0.746981 10.9516 0.990937L0.451562 12.2409C0.278344 12.4235 0.2082 12.6807 0.264781 12.9259C0.321363 13.1711 0.49713 13.3715 0.732812 13.4597L6.13562 15.4856L4.765 22.3528C4.70107 22.681 4.86205 23.0118 5.15971 23.164C5.45738 23.3162 5.81984 23.253 6.04844 23.0091L16.5484 11.7591C16.7185 11.5766 16.7866 11.3214 16.7303 11.0784ZM6.75344 20.0625L7.735 15.1519C7.80755 14.7922 7.60923 14.4328 7.26625 14.3025L2.3125 12.4416L10.2456 3.94219L9.265 8.85281C9.19245 9.21248 9.39077 9.57184 9.73375 9.70219L14.6838 11.5584L6.75344 20.0625Z" fill="#121217"/>
</svg>
