<svg width="25" height="24" viewBox="0 0 25 24" fill="none" xmlns="http://www.w3.org/2000/svg">
<g clip-path="url(#clip0_953_3649)">
<path fill-rule="evenodd" clip-rule="evenodd" d="M11.4922 14.805C13.5561 13.431 14.4769 10.8677 13.7592 8.49441C13.0414 6.12114 10.8544 4.49772 8.375 4.49772C5.89558 4.49772 3.70857 6.12114 2.99084 8.49441C2.2731 10.8677 3.19393 13.431 5.25781 14.805C3.43952 15.4752 1.88666 16.7153 0.830938 18.3403C0.679932 18.5647 0.661484 18.8531 0.78266 19.095C0.903836 19.3368 1.14586 19.4947 1.41603 19.5081C1.68621 19.5215 1.94266 19.3884 2.08719 19.1597C3.47076 17.0317 5.83677 15.7479 8.375 15.7479C10.9132 15.7479 13.2792 17.0317 14.6628 19.1597C14.8917 19.4999 15.3514 19.5932 15.6948 19.3692C16.0382 19.1452 16.1381 18.6869 15.9191 18.3403C14.8633 16.7153 13.3105 15.4752 11.4922 14.805ZM4.25 10.125C4.25 7.84683 6.09683 6 8.375 6C10.6532 6 12.5 7.84683 12.5 10.125C12.5 12.4032 10.6532 14.25 8.375 14.25C6.0979 14.2474 4.25258 12.4021 4.25 10.125ZM23.9506 19.3781C23.6037 19.6043 23.1391 19.5066 22.9128 19.1597C21.5308 17.0303 19.1636 15.7466 16.625 15.75C16.2108 15.75 15.875 15.4142 15.875 15C15.875 14.5858 16.2108 14.25 16.625 14.25C18.2863 14.2484 19.7846 13.2504 20.4261 11.718C21.0677 10.1855 20.7273 8.4178 19.5626 7.23312C18.398 6.04844 16.6363 5.67805 15.0931 6.29344C14.8427 6.40171 14.5531 6.36541 14.3372 6.19864C14.1212 6.03188 14.0128 5.76096 14.0542 5.49125C14.0956 5.22154 14.2802 4.99558 14.5363 4.90125C17.2109 3.83457 20.2592 4.96001 21.599 7.50883C22.9388 10.0576 22.1374 13.2067 19.7422 14.805C21.5605 15.4752 23.1133 16.7153 24.1691 18.3403C24.3953 18.6872 24.2975 19.1518 23.9506 19.3781Z" fill="#121217"/>
</g>
<defs>
<clipPath id="clip0_953_3649">
<rect width="24" height="24" fill="white" transform="translate(0.5)"/>
</clipPath>
</defs>
</svg>
